# xmcd CD database file generated by Grip 3.3.1
# 
# Track frame offsets:
#       150
#       15530
#       37123
#       51175
#       70938
#       82463
#       106365
#       127945
#       142155
#       155035
#       174160
#       199683
#       228485
# 
# Disc length: 3166 seconds
# 
# Revision: 1
# Processed by: cddbd v1.5.2PL0 Copyright (c) Steve Scherf et al.
# Submitted via: Grip 3.3.1
# 
DISCID=b80c5c0d
DTITLE=Masha Bijlsma Band - Winds of Change
DYEAR=1994
DGENRE=Jazz
TTITLE0=Tender as a Rose
TTITLE1=Don't Get Around Much Any More
TTITLE2=I Mean You
TTITLE3=Someone New
TTITLE4=Those Days
TTITLE5=Bird Alone
TTITLE6=Winds of Change
TTITLE7=Get It Straight
TTITLE8=Nature Boy
TTITLE9=That's All
TTITLE10=So Long
TTITLE11=And the Melody Still Lingers On
TTITLE12=For Jan
EXTD=YEAR: 1994
EXTT0=
EXTT1=
EXTT2=
EXTT3=
EXTT4=
EXTT5=
EXTT6=
EXTT7=
EXTT8=
EXTT9=
EXTT10=
EXTT11=
EXTT12=
PLAYORDER=
